<?xml version="1.0" standalone="no"?>
<!DOCTYPE svg PUBLIC "-//W3C//DTD SVG 20010904//EN"
 "http://www.w3.org/TR/2001/REC-SVG-20010904/DTD/svg10.dtd">
<svg version="1.0" xmlns="http://www.w3.org/2000/svg"
 width="713.000000pt" height="713.000000pt" viewBox="0 0 713.000000 713.000000"
 preserveAspectRatio="xMidYMid meet">
<metadata>
Created by potrace 1.11, written by Peter Selinger 2001-2013
</metadata>
<g transform="translate(0.000000,713.000000) scale(0.100000,-0.100000)"
fill="#000000" stroke="none">
<path d="M3200 7114 c-551 -49 -981 -175 -1407 -412 l-103 -57 0 -945 0 -945
29 -60 c50 -104 140 -172 260 -195 30 -6 215 -10 421 -10 362 0 368 0 373 -20
3 -12 -11 -78 -30 -148 -26 -94 -42 -133 -61 -150 l-25 -24 -386 5 c-299 3
-398 8 -441 19 -203 55 -350 169 -429 331 -64 131 -64 131 -71 717 -4 345 -7
453 -9 305 -2 -126 -6 -240 -9 -253 -9 -30 -28 -24 -24 6 2 15 -1 21 -7 17 -6
-3 -12 -43 -12 -88 -1 -63 -3 -74 -9 -47 l-7 35 -2 -32 c0 -17 4 -35 9 -38 6
-3 10 -39 10 -80 0 -60 -3 -74 -17 -79 -13 -5 -14 -9 -5 -15 10 -6 10 -14 2
-36 -8 -22 -17 -127 -20 -253 0 -6 -3 -11 -7 -11 -29 5 -33 -4 -33 -76 0 -60
-3 -76 -17 -84 -21 -11 -20 1 -21 -178 -2 -136 -3 -143 -22 -143 -19 0 -20 -7
-20 -137 0 -150 -5 -183 -26 -183 -11 0 -14 -19 -14 -80 l0 -80 -30 0 c-30 0
-41 -15 -17 -23 9 -3 9 -9 1 -28 -7 -13 -12 -41 -12 -62 0 -21 -4 -43 -9 -50
-5 -7 -9 -46 -8 -88 0 -57 -3 -75 -12 -72 -8 3 -13 -4 -13 -20 0 -14 -5 -29
-11 -32 -6 -4 -10 -30 -9 -59 5 -146 0 -206 -15 -206 -12 0 -15 -16 -15 -86 0
-47 -3 -83 -8 -81 -4 3 -5 -17 -4 -44 3 -31 0 -49 -7 -49 -6 0 -11 -13 -11
-30 0 -23 -5 -30 -19 -30 -16 0 -18 -9 -20 -77 -1 -43 -6 -79 -11 -81 -6 -2
-10 -39 -10 -83 0 -73 -2 -79 -21 -79 -19 0 -20 -5 -18 -77 2 -66 0 -79 -14
-81 -13 -3 -17 4 -18 30 0 27 -2 29 -8 13 -5 -11 -5 -27 0 -37 6 -11 4 -18 -7
-22 -11 -4 -12 -10 -5 -25 8 -14 7 -20 -4 -24 -9 -4 -12 -1 -8 9 3 7 1 14 -5
14 -19 0 -6 -30 43 -105 26 -41 53 -71 58 -68 6 3 7 1 4 -4 -9 -15 62 -105 75
-97 7 4 8 2 4 -4 -4 -7 4 -27 19 -46 34 -44 100 -63 279 -78 228 -19 452 8
575 70 92 46 191 160 191 220 0 10 -61 175 -136 367 -74 193 -185 478 -246
635 -60 157 -141 364 -179 461 -38 96 -69 180 -69 186 0 7 7 19 16 27 13 13
43 16 172 16 86 0 163 -4 170 -8 7 -5 63 -150 126 -323 62 -173 158 -436 212
-586 54 -150 102 -269 105 -265 4 4 82 261 174 572 92 311 173 575 181 588 14
21 19 22 182 22 175 0 192 -4 192 -43 0 -23 -505 -1561 -556 -1693 -75 -197
-216 -354 -396 -443 -166 -82 -231 -96 -441 -96 -97 0 -177 -1 -177 -2 0 -1
35 -29 78 -61 468 -357 1051 -568 1787 -648 163 -18 623 -25 779 -11 272 23
592 92 829 178 282 104 648 310 818 461 21 19 39 33 39 31 0 -2 24 19 52 46
29 28 56 51 60 51 5 0 8 7 8 16 0 8 4 13 9 10 4 -3 16 3 25 13 14 15 14 20 4
25 -7 3 -3 4 9 2 18 -3 21 0 15 18 -14 41 3 86 32 86 6 0 4 -6 -5 -13 -21 -16
-30 -54 -15 -66 8 -7 12 -3 14 15 3 37 11 46 38 41 19 -3 22 -1 13 9 -17 20
-70 29 -81 13 -8 -11 -9 -11 -5 2 6 18 -387 424 -402 415 -5 -3 -7 3 -4 14 3
13 0 20 -9 20 -17 0 -68 57 -68 76 0 8 -6 14 -12 14 -19 1 -68 47 -68 65 0 8
-7 15 -14 15 -8 0 -28 17 -43 37 -15 21 -48 56 -72 78 -24 22 -59 55 -77 73
-21 20 -34 28 -37 20 -2 -7 -10 6 -17 30 -11 33 -18 42 -36 42 -19 0 -23 6
-26 38 -3 35 -5 37 -40 40 -21 2 -38 8 -38 13 0 17 -70 98 -90 104 -25 8 -63
72 -47 79 7 3 1 3 -12 0 -18 -5 -22 -3 -16 7 4 8 -10 -3 -31 -23 l-40 -38
-611 0 c-522 0 -612 -2 -623 -15 -24 -29 33 -179 100 -264 88 -111 214 -164
390 -165 215 -1 351 67 425 214 14 27 26 51 28 52 9 7 317 11 317 4 0 -5 7 -3
15 4 10 8 7 -6 -9 -47 -60 -153 -119 -245 -215 -336 -78 -73 -169 -122 -291
-157 -96 -28 -308 -38 -416 -21 -285 47 -522 225 -614 463 -101 261 -89 556
31 789 128 247 373 403 653 417 l109 5 15 38 c8 21 19 36 23 33 5 -3 6 3 2 12
-5 14 -3 16 13 10 15 -5 16 -4 7 5 -9 9 -8 19 4 45 9 18 21 30 26 27 6 -3 7
-1 3 5 -8 14 57 155 68 145 5 -4 6 -2 2 5 -4 7 20 64 59 139 l67 126 -71 -65
c-120 -111 -245 -158 -426 -158 -119 0 -191 16 -295 67 -141 68 -251 211 -295
382 -26 102 -35 261 -35 647 0 337 1 362 18 377 15 14 42 17 154 17 118 0 137
-2 151 -18 15 -17 17 -58 17 -383 0 -279 4 -380 15 -432 41 -194 146 -301 323
-328 87 -13 169 -2 241 33 66 31 152 121 189 198 57 116 64 169 71 558 5 298
8 354 21 362 8 5 79 10 157 10 115 0 144 -3 157 -16 14 -13 16 -60 16 -360 l0
-345 60 51 c188 156 407 255 655 295 263 43 566 22 795 -55 405 -136 685 -455
770 -875 23 -112 25 -65 5 91 -70 531 -278 1020 -615 1444 -103 130 -332 359
-465 465 -312 249 -725 469 -1116 593 -220 70 -491 127 -744 157 -133 16 -627
28 -735 19z m1473 -4242 c-15 -42 -38 -54 -40 -22 -1 11 3 20 8 20 6 0 7 -4 4
-10 -3 -5 -1 -10 4 -10 6 0 11 12 11 26 0 14 4 23 10 19 5 -3 6 -13 3 -23z
m-56 -38 c-3 -3 -12 -4 -19 -1 -8 3 -5 6 6 6 11 1 17 -2 13 -5z m-3817 -631
c0 -7 -4 -13 -9 -13 -5 0 -18 -3 -28 -7 -10 -3 -15 -3 -11 2 4 4 3 17 -3 28
-8 14 -8 18 0 13 6 -4 11 -2 11 3 0 7 7 7 20 -1 11 -7 20 -18 20 -25z m-30
-53 c0 -6 5 -9 11 -7 18 4 36 -30 23 -43 -8 -8 -13 -7 -18 5 -3 9 -2 13 4 10
6 -3 10 -2 10 4 0 15 -18 23 -25 11 -4 -6 -11 -8 -16 -4 -5 3 -7 10 -3 15 3 6
-2 17 -12 25 -18 14 -18 14 4 4 12 -6 22 -15 22 -20z"/>
<path d="M1303 5395 c0 -33 2 -45 4 -27 2 18 2 45 0 60 -2 15 -4 0 -4 -33z"/>
<path d="M1231 5065 c-7 -46 -5 -103 2 -96 5 5 6 32 4 62 -2 30 -5 45 -6 34z"/>
<path d="M5895 4929 c-309 -40 -586 -253 -701 -539 -66 -161 -83 -356 -49
-526 53 -256 233 -487 476 -609 241 -122 541 -120 790 6 83 41 202 132 262
198 90 100 165 244 203 387 18 70 30 364 15 364 -4 0 -15 33 -25 74 -10 41
-36 112 -59 158 -136 271 -396 454 -692 488 -102 11 -122 11 -220 -1z"/>
<path d="M1147 4596 c-5 -21 -6 -41 -3 -44 12 -11 17 7 14 44 l-3 39 -8 -39z"/>
<path d="M1137 4510 c-11 -16 -13 -26 -6 -29 16 -5 31 14 27 35 -3 17 -5 16
-21 -6z"/>
<path d="M3920 3846 c0 -3 9 -10 20 -16 11 -6 20 -8 20 -6 0 3 -9 10 -20 16
-11 6 -20 8 -20 6z"/>
<path d="M3914 3808 c-4 -7 -4 -10 0 -6 5 4 19 3 32 -2 15 -6 24 -6 24 0 0 6
-4 10 -9 10 -5 0 -16 3 -24 6 -8 3 -18 -1 -23 -8z"/>
<path d="M4116 3772 c-3 -5 1 -9 9 -9 8 0 15 4 15 9 0 4 -4 8 -9 8 -6 0 -12
-4 -15 -8z"/>
<path d="M3769 3496 c-3 -3 -25 -8 -48 -10 -126 -12 -304 -170 -336 -297 -13
-54 -13 -54 469 -50 318 2 443 6 448 15 10 15 3 32 -11 28 -7 -1 -10 2 -6 8 3
6 11 7 17 4 16 -10 2 38 -23 81 -15 24 -27 34 -37 30 -12 -4 -12 -2 -3 8 16
20 -61 90 -81 73 -7 -6 -12 -9 -10 -7 1 2 -6 13 -15 24 -10 11 -12 17 -5 13 6
-4 12 -3 12 2 0 13 -46 32 -69 27 -15 -3 -18 0 -14 12 5 13 2 15 -15 11 -12
-4 -22 -3 -22 2 0 4 -10 11 -22 14 -33 9 -222 19 -229 12z m421 -137 c0 -6 -4
-7 -10 -4 -5 3 -10 11 -10 16 0 6 5 7 10 4 6 -3 10 -11 10 -16z m46 -81 c3 -4
-1 -5 -10 -4 -8 1 -18 5 -22 8 -3 4 1 5 10 4 8 -1 18 -5 22 -8z"/>
<path d="M4526 3472 c-3 -5 1 -9 9 -9 8 0 12 4 9 9 -3 4 -7 8 -9 8 -2 0 -6 -4
-9 -8z"/>
<path d="M947 3423 c-3 -21 -8 -45 -11 -54 -5 -10 -2 -16 9 -16 12 0 15 12 15
54 0 62 -5 68 -13 16z"/>
<path d="M4145 3400 c3 -5 8 -10 11 -10 2 0 4 5 4 10 0 6 -5 10 -11 10 -5 0
-7 -4 -4 -10z"/>
<path d="M933 3260 c0 -30 2 -43 4 -27 2 15 2 39 0 55 -2 15 -4 2 -4 -28z"/>
<path d="M911 3254 c0 -11 3 -14 6 -6 3 7 2 16 -1 19 -3 4 -6 -2 -5 -13z"/>
<path d="M895 3210 c-3 -5 -1 -10 4 -10 6 0 11 5 11 10 0 6 -2 10 -4 10 -3 0
-8 -4 -11 -10z"/>
<path d="M4640 3196 c0 -2 8 -10 18 -17 15 -13 16 -12 3 4 -13 16 -21 21 -21
13z"/>
<path d="M4665 3101 c-3 -5 -2 -12 3 -15 5 -3 9 1 9 9 0 17 -3 19 -12 6z"/>
<path d="M872 2969 c-2 -58 0 -89 7 -89 13 0 16 166 4 173 -5 3 -9 -35 -11
-84z"/>
<path d="M4700 2934 c0 -8 5 -12 10 -9 6 3 10 10 10 16 0 5 -4 9 -10 9 -5 0
-10 -7 -10 -16z"/>
<path d="M4739 2918 c-7 -24 -5 -38 7 -38 8 0 14 9 14 20 0 11 -4 20 -10 20
-5 0 -10 -1 -11 -2z"/>
<path d="M830 2763 c-3 -23 -2 -39 3 -34 5 5 7 24 5 42 -3 33 -4 33 -8 -8z"/>
<path d="M4932 2751 c7 -12 19 -21 26 -21 17 0 7 17 -19 31 -18 9 -19 9 -7
-10z"/>
<path d="M5080 2545 c0 -8 6 -15 13 -15 8 0 14 7 14 15 0 8 -6 15 -14 15 -7 0
-13 -7 -13 -15z"/>
<path d="M5255 2420 c-3 -5 1 -10 10 -10 9 0 13 5 10 10 -3 6 -8 10 -10 10 -2
0 -7 -4 -10 -10z"/>
<path d="M771 2394 c0 -11 3 -14 6 -6 3 7 2 16 -1 19 -3 4 -6 -2 -5 -13z"/>
<path d="M740 2361 c0 -5 5 -13 10 -16 6 -3 10 -2 10 4 0 5 -4 13 -10 16 -5 3
-10 2 -10 -4z"/>
<path d="M5360 2265 c0 -8 9 -15 20 -15 11 0 20 2 20 5 0 2 -9 9 -20 15 -16 9
-20 8 -20 -5z"/>
<path d="M5870 1784 c0 -8 5 -12 10 -9 6 4 8 11 5 16 -9 14 -15 11 -15 -7z"/>
<path d="M5904 1765 c-4 -8 -10 -12 -15 -9 -5 3 -6 -2 -3 -11 7 -18 7 -18 23
13 6 12 9 22 6 22 -3 0 -8 -7 -11 -15z"/>
<path d="M5855 1689 c-11 -17 1 -21 15 -4 8 9 8 15 2 15 -6 0 -14 -5 -17 -11z"/>
</g>
</svg>
